<svg width="22" height="12" viewBox="0 0 22 12" fill="none" xmlns="http://www.w3.org/2000/svg">
<path opacity="0.7" d="M6.72947 10.4596L6.16002 11.0291C6.10316 11.0861 6.0356 11.1313 5.96121 11.1622C5.88683 11.1931 5.80708 11.209 5.72654 11.209C5.646 11.209 5.56625 11.1931 5.49187 11.1622C5.41748 11.1313 5.34992 11.0861 5.29305 11.0291L0.320425 6.05643C0.263394 5.99956 0.218142 5.932 0.187266 5.85761C0.156392 5.78323 0.140498 5.70348 0.140498 5.62294C0.140498 5.5424 0.156392 5.46266 0.187266 5.38827C0.218142 5.31388 0.263394 5.24632 0.320426 5.18946L5.29306 0.21398C5.34992 0.156948 5.41748 0.111697 5.49187 0.0808215C5.56625 0.0499463 5.646 0.0340533 5.72654 0.0340534C5.80708 0.0340534 5.88683 0.0499463 5.96121 0.0808216C6.0356 0.111697 6.10316 0.156948 6.16003 0.21398L6.72947 0.783419C6.78683 0.841499 6.83206 0.91042 6.86251 0.986161C6.89297 1.0619 6.90804 1.14295 6.90685 1.22457C6.90565 1.3062 6.88822 1.38677 6.85557 1.46159C6.82291 1.53641 6.77569 1.60398 6.71665 1.66036L3.63599 4.59724L21.1776 4.57446C21.2582 4.57427 21.3381 4.59002 21.4126 4.62079C21.4871 4.65155 21.5548 4.69674 21.6118 4.75376C21.6689 4.81077 21.714 4.87848 21.7448 4.95301C21.7756 5.02753 21.7913 5.10741 21.7911 5.18803L21.7911 6.00803C21.7913 6.08865 21.7756 6.16852 21.7448 6.24305C21.714 6.31758 21.6689 6.38529 21.6118 6.4423C21.5548 6.49932 21.4871 6.54451 21.4126 6.57527C21.3381 6.60604 21.2582 6.62179 21.1776 6.6216L3.63599 6.64437L6.71665 9.58126C6.77643 9.63735 6.82431 9.7049 6.85742 9.77988C6.89054 9.85487 6.90823 9.93575 6.90942 10.0177C6.91062 10.0997 6.8953 10.181 6.86438 10.257C6.83347 10.3329 6.78758 10.4018 6.72947 10.4596Z" fill="#22C55E"/>
</svg>
