<svg width="23" height="12" viewBox="0 0 23 12" fill="none" xmlns="http://www.w3.org/2000/svg">
<path d="M15.8527 0.749366L16.4221 0.179927C16.479 0.122894 16.5466 0.0776436 16.6209 0.0467683C16.6953 0.015893 16.7751 0 16.8556 0C16.9362 0 17.0159 0.015893 17.0903 0.0467683C17.1647 0.0776436 17.2322 0.122894 17.2891 0.179927L22.2617 5.15256C22.3188 5.20942 22.364 5.27698 22.3949 5.35137C22.4258 5.42576 22.4417 5.5055 22.4417 5.58604C22.4417 5.66658 22.4258 5.74633 22.3949 5.82071C22.364 5.8951 22.3188 5.96266 22.2617 6.01953L17.2891 10.995C17.2322 11.052 17.1647 11.0973 17.0903 11.1282C17.0159 11.159 16.9362 11.1749 16.8556 11.1749C16.7751 11.1749 16.6953 11.159 16.6209 11.1282C16.5466 11.0973 16.479 11.052 16.4221 10.995L15.8527 10.4256C15.7953 10.3675 15.7501 10.2986 15.7196 10.2228C15.6892 10.1471 15.6741 10.066 15.6753 9.98441C15.6765 9.90278 15.6939 9.82221 15.7266 9.74739C15.7592 9.67257 15.8065 9.60501 15.8655 9.54863L18.9462 6.61174L1.40459 6.63452C1.32396 6.63471 1.24409 6.61897 1.16956 6.5882C1.09504 6.55743 1.02732 6.51224 0.97031 6.45523C0.913297 6.39822 0.868109 6.3305 0.83734 6.25598C0.806572 6.18145 0.79083 6.10158 0.791017 6.02095L0.791017 5.20096C0.79083 5.12033 0.806572 5.04046 0.83734 4.96593C0.868109 4.89141 0.913297 4.82369 0.97031 4.76668C1.02732 4.70967 1.09504 4.66448 1.16956 4.63371C1.24409 4.60294 1.32396 4.5872 1.40459 4.58739L18.9462 4.56461L15.8655 1.62773C15.8057 1.57164 15.7578 1.50409 15.7247 1.4291C15.6916 1.35411 15.6739 1.27323 15.6727 1.19126C15.6715 1.1093 15.6869 1.02793 15.7178 0.952014C15.7487 0.876094 15.7946 0.807176 15.8527 0.749366Z" fill="#22C55E"/>
</svg>
