<svg width="48" height="48" viewBox="0 0 48 48" fill="none" xmlns="http://www.w3.org/2000/svg">
<g clip-path="url(#clip0_103_11389)">
<g filter="url(#filter0_d_103_11389)">
<path d="M42 38V34.7081C42 33.0725 41.0042 31.6017 39.4856 30.9942L35.4173 29.3669C33.4857 28.5943 31.2844 29.4312 30.354 31.292L30 32C30 32 25 31 21 27C17 23 16 18 16 18L16.708 17.646C18.5688 16.7156 19.4057 14.5143 18.6331 12.5827L17.0058 8.51444C16.3983 6.99581 14.9275 6 13.2919 6H10C7.79086 6 6 7.79086 6 10C6 27.6731 20.3269 42 38 42C40.2091 42 42 40.2091 42 38Z" stroke="#474747" stroke-width="2" stroke-linejoin="round" shape-rendering="crispEdges"/>
</g>
</g>
<defs>
<filter id="filter0_d_103_11389" x="1" y="5" width="46" height="46" filterUnits="userSpaceOnUse" color-interpolation-filters="sRGB">
<feFlood flood-opacity="0" result="BackgroundImageFix"/>
<feColorMatrix in="SourceAlpha" type="matrix" values="0 0 0 0 0 0 0 0 0 0 0 0 0 0 0 0 0 0 127 0" result="hardAlpha"/>
<feOffset dy="4"/>
<feGaussianBlur stdDeviation="2"/>
<feComposite in2="hardAlpha" operator="out"/>
<feColorMatrix type="matrix" values="0 0 0 0 0 0 0 0 0 0 0 0 0 0 0 0 0 0 0.14 0"/>
<feBlend mode="normal" in2="BackgroundImageFix" result="effect1_dropShadow_103_11389"/>
<feBlend mode="normal" in="SourceGraphic" in2="effect1_dropShadow_103_11389" result="shape"/>
</filter>
<clipPath id="clip0_103_11389">
<rect width="48" height="48" fill="white"/>
</clipPath>
</defs>
</svg>
