<svg width="48" height="48" viewBox="0 0 48 48" fill="none" xmlns="http://www.w3.org/2000/svg">
<g clip-path="url(#clip0_103_11393)">
<g filter="url(#filter0_d_103_11393)">
<path d="M28 38V14M28 38H32M28 38H18M28 14C28 9.58172 24.4183 6 20 6H12C7.58172 6 4 9.58172 4 14V30C4 33.7304 6.55333 36.8645 10.0077 37.7499M28 14H34.4182C35.4344 14 36.4126 14.3868 37.154 15.0819L42.7358 20.3148C43.5424 21.071 44 22.1273 44 23.2329V34C44 36.2091 42.2091 38 40 38M40 38C40 40.2091 38.2091 42 36 42C33.7909 42 32 40.2091 32 38M40 38C40 35.7909 38.2091 34 36 34C33.7909 34 32 35.7909 32 38M18 38C18 40.2091 16.2091 42 14 42C11.7909 42 10 40.2091 10 38C10 37.916 10.0026 37.8326 10.0077 37.7499M18 38C18 35.7909 16.2091 34 14 34C11.8748 34 10.1368 35.6573 10.0077 37.7499" stroke="#474747" stroke-width="2" shape-rendering="crispEdges"/>
</g>
<g filter="url(#filter1_d_103_11393)">
<path d="M20 16H16" stroke="#474747" stroke-width="2" stroke-linecap="round" stroke-linejoin="round"/>
</g>
<g filter="url(#filter2_d_103_11393)">
<path d="M20 24H12" stroke="#474747" stroke-width="2" stroke-linecap="round" stroke-linejoin="round"/>
</g>
</g>
<defs>
<filter id="filter0_d_103_11393" x="-1" y="5" width="50" height="46" filterUnits="userSpaceOnUse" color-interpolation-filters="sRGB">
<feFlood flood-opacity="0" result="BackgroundImageFix"/>
<feColorMatrix in="SourceAlpha" type="matrix" values="0 0 0 0 0 0 0 0 0 0 0 0 0 0 0 0 0 0 127 0" result="hardAlpha"/>
<feOffset dy="4"/>
<feGaussianBlur stdDeviation="2"/>
<feComposite in2="hardAlpha" operator="out"/>
<feColorMatrix type="matrix" values="0 0 0 0 0 0 0 0 0 0 0 0 0 0 0 0 0 0 0.14 0"/>
<feBlend mode="normal" in2="BackgroundImageFix" result="effect1_dropShadow_103_11393"/>
<feBlend mode="normal" in="SourceGraphic" in2="effect1_dropShadow_103_11393" result="shape"/>
</filter>
<filter id="filter1_d_103_11393" x="11" y="15" width="14" height="10" filterUnits="userSpaceOnUse" color-interpolation-filters="sRGB">
<feFlood flood-opacity="0" result="BackgroundImageFix"/>
<feColorMatrix in="SourceAlpha" type="matrix" values="0 0 0 0 0 0 0 0 0 0 0 0 0 0 0 0 0 0 127 0" result="hardAlpha"/>
<feOffset dy="4"/>
<feGaussianBlur stdDeviation="2"/>
<feComposite in2="hardAlpha" operator="out"/>
<feColorMatrix type="matrix" values="0 0 0 0 0 0 0 0 0 0 0 0 0 0 0 0 0 0 0.14 0"/>
<feBlend mode="normal" in2="BackgroundImageFix" result="effect1_dropShadow_103_11393"/>
<feBlend mode="normal" in="SourceGraphic" in2="effect1_dropShadow_103_11393" result="shape"/>
</filter>
<filter id="filter2_d_103_11393" x="7" y="23" width="18" height="10" filterUnits="userSpaceOnUse" color-interpolation-filters="sRGB">
<feFlood flood-opacity="0" result="BackgroundImageFix"/>
<feColorMatrix in="SourceAlpha" type="matrix" values="0 0 0 0 0 0 0 0 0 0 0 0 0 0 0 0 0 0 127 0" result="hardAlpha"/>
<feOffset dy="4"/>
<feGaussianBlur stdDeviation="2"/>
<feComposite in2="hardAlpha" operator="out"/>
<feColorMatrix type="matrix" values="0 0 0 0 0 0 0 0 0 0 0 0 0 0 0 0 0 0 0.14 0"/>
<feBlend mode="normal" in2="BackgroundImageFix" result="effect1_dropShadow_103_11393"/>
<feBlend mode="normal" in="SourceGraphic" in2="effect1_dropShadow_103_11393" result="shape"/>
</filter>
<clipPath id="clip0_103_11393">
<rect width="48" height="48" fill="white"/>
</clipPath>
</defs>
</svg>
