<svg width="24" height="24" viewBox="0 0 24 24" fill="none" xmlns="http://www.w3.org/2000/svg">
<path d="M10.8138 3.65077C11.1872 2.50167 12.8128 2.50166 13.1862 3.65077L14.4141 7.42997C14.5811 7.94386 15.06 8.2918 15.6004 8.2918H19.574C20.7823 8.2918 21.2846 9.83791 20.3071 10.5481L17.0924 12.8838C16.6552 13.2014 16.4723 13.7643 16.6393 14.2782L17.8672 18.0574C18.2406 19.2065 16.9254 20.1621 15.9479 19.4519L12.7331 17.1162C12.296 16.7986 11.704 16.7986 11.2669 17.1162L8.05211 19.4519C7.07462 20.1621 5.75942 19.2065 6.13278 18.0574L7.36072 14.2782C7.52769 13.7643 7.34477 13.2014 6.90763 12.8838L3.69286 10.5481C2.71537 9.83791 3.21773 8.2918 4.42597 8.2918H8.39965C8.93999 8.2918 9.41888 7.94386 9.58586 7.42997L10.8138 3.65077Z" fill="#F7871B"/>
</svg>
